HIERARCHY
ROOT hip
{
	OFFSET 0.000000 0.000000 0.000000 
	CHANNELS 6 Xposition Yposition Zposition Xrotation Zrotation Yrotation
	JOINT abdomen
	{
		OFFSET 0.000000 3.402643 0.000000 
		CHANNELS 3 Xrotation Zrotation Yrotation
		JOINT chest
		{
			OFFSET 0.000000 8.438565 -0.680529 
			CHANNELS 3 Xrotation Zrotation Yrotation
			JOINT neck
			{
				OFFSET 0.000000 10.207942 -0.272212 
				CHANNELS 3 Xrotation Zrotation Yrotation
				JOINT head
				{
					OFFSET 0.000000 3.130431 0.000000 
					CHANNELS 3 Xrotation Zrotation Yrotation
					End Site
					{
						OFFSET 0.000000 3.130435 0.000000 
					}
				}
			}
			JOINT lCollar
			{
				OFFSET 3.470700 6.669187 -0.816635 
				CHANNELS 3 Yrotation Zrotation Xrotation
				JOINT lShldr
				{
					OFFSET 3.198488 0.000000 0.000000 
					CHANNELS 3 Zrotation Yrotation Xrotation
					JOINT lForeArm
					{
						OFFSET 10.139888 0.000000 0.000000 
						CHANNELS 3 Yrotation Zrotation Xrotation
						JOINT lHand
						{
							OFFSET 8.370511 0.000000 0.000000 
							CHANNELS 3 Zrotation Yrotation Xrotation
							End Site
							{
								OFFSET 4.083176 0.000000 0.000000 
							}
						}
					}
				}
			}
			JOINT rCollar
			{
				OFFSET -3.470700 6.669187 -0.816635 
				CHANNELS 3 Yrotation Zrotation Xrotation
				JOINT rShldr
				{
					OFFSET -3.198488 0.000000 0.000000 
					CHANNELS 3 Zrotation Yrotation Xrotation
					JOINT rForeArm
					{
						OFFSET -10.139888 0.000000 0.000000 
						CHANNELS 3 Yrotation Zrotation Xrotation
						JOINT rHand
						{
							OFFSET -8.370511 0.000000 0.000000 
							CHANNELS 3 Zrotation Yrotation Xrotation
							End Site
							{
								OFFSET -4.083176 0.000000 0.000000 
							}
						}
					}
				}
			}
		}
	}
	JOINT lThigh
	{
		OFFSET 5.308129 -1.633274 1.361059 
		CHANNELS 3 Xrotation Zrotation Yrotation
		JOINT lShin
		{
			OFFSET -2.041588 -20.007561 0.000000 
			CHANNELS 3 Xrotation Zrotation Yrotation
			JOINT lFoot
			{
				OFFSET 0.000000 -19.190928 -1.224953 
				CHANNELS 3 Xrotation Yrotation Zrotation
				End Site
				{
					OFFSET 0.000000 -2.449906 4.627600 
				}
			}
		}
	}
	JOINT rThigh
	{
		OFFSET -5.308129 -1.633274 1.361059 
		CHANNELS 3 Xrotation Zrotation Yrotation
		JOINT rShin
		{
			OFFSET 2.041588 -20.007561 0.000000 
			CHANNELS 3 Xrotation Zrotation Yrotation
			JOINT rFoot
			{
				OFFSET 0.000000 -19.190928 -1.224953 
				CHANNELS 3 Xrotation Yrotation Zrotation
				End Site
				{
					OFFSET 0.000000 -2.449906 4.627600 
				}
			}
		}
	}
}
MOTION
Frames: 16
Frame Time: 0.033333
-0.286059 41.860210 0.224418 8.898880 3.652856 5.842458 0.000000 0.000000 0.000000 4.642509 -13.012558 3.576998 -2.953937 12.439818 0.931056 -18.296194 -3.703107 -20.210381 -11.006959 29.994637 24.988949 -17.471289 -67.070625 -55.526714 -63.060150 10.765700 17.766272 -19.201056 -12.831719 48.268005 -28.122086 -10.701358 18.584080 47.144890 11.475989 57.183292 74.558701 -35.571808 55.191185 68.415833 21.809467 3.505012 -18.599955 9.507855 19.083597 92.346764 0.243563 -3.209900 -16.436777 -13.258693 -33.278732 -59.323566 -15.829618 -0.874783 67.261986 17.977777 9.314913 -13.887069 -31.693766 18.133007 
-0.577506 41.859154 0.563252 9.107574 2.946680 5.231739 0.000000 0.000000 0.000000 4.069483 -11.360711 3.924124 -2.903242 11.248834 0.836937 -18.337294 -3.496922 -19.579393 -8.951541 29.997000 24.987747 -23.745022 -66.139389 -50.873859 -65.079567 7.440806 19.893848 -19.770966 -13.155029 48.348789 -26.872414 -11.233362 18.611841 47.178192 14.946364 56.671753 73.357307 -36.757004 55.476810 69.090187 22.044071 3.553271 -15.620142 10.481549 19.734018 92.006264 1.513165 -2.906495 -15.137897 -13.709247 -33.640770 -58.717232 -14.237662 -0.397043 70.402046 17.879475 9.591979 -15.879786 -31.797369 15.957491 
-0.870857 41.865353 0.961879 8.862848 2.143063 4.055738 0.000000 0.000000 0.000000 3.889743 -9.426676 4.325003 -2.655200 9.677020 0.704833 -18.394960 -3.040099 -18.376728 -6.033573 29.999775 24.986753 -31.516983 -64.556740 -45.163132 -67.220238 3.055772 22.482296 -20.432949 -13.650290 48.533550 -25.315676 -12.331650 18.456633 47.400074 19.390917 56.023376 70.986443 -37.540398 53.641369 69.198891 21.266640 2.634267 -13.064772 11.569160 20.368774 92.282829 3.094779 -2.531866 -12.572867 -13.876227 -33.786026 -57.283669 -11.884648 0.236141 73.267365 17.616634 9.770156 -18.124691 -32.556667 14.994450 
-1.161603 41.882557 1.319026 8.273703 1.365835 2.549733 0.000000 0.000000 0.000000 4.219079 -7.621077 4.698558 -2.437575 8.095291 0.582807 -18.276525 -2.215771 -16.800238 -2.842547 29.988623 24.986347 -38.541565 -62.134396 -39.859035 -69.231812 -1.476211 24.696587 -20.743904 -12.994591 48.275726 -23.456949 -13.750367 18.314447 47.312496 24.352980 55.012741 67.951820 -38.017998 50.339520 69.098358 20.421713 1.575311 -11.628822 12.348531 20.798569 93.547272 5.399412 -2.022686 -6.563097 -13.704766 -33.299290 -55.291382 -8.925506 1.012782 75.440498 16.981310 9.827696 -20.713346 -33.968788 14.789810 
-1.445138 41.888184 1.534289 7.784277 0.722575 0.859553 0.000000 0.000000 0.000000 4.814928 -6.158394 4.988809 -2.426544 6.562280 0.472375 -18.028496 -1.649218 -15.201795 0.384170 29.992975 24.122959 -43.627773 -58.767597 -35.774513 -70.831154 -5.647126 26.193573 -20.783867 -11.735454 47.764416 -21.245964 -15.587190 18.200836 46.865849 29.904772 53.548634 64.243469 -38.349113 45.579941 68.287064 19.656157 0.439178 -13.150723 13.058439 20.915951 97.140648 8.601711 -1.321591 2.629544 -12.385053 -32.075073 -53.485359 -5.615076 1.901375 77.164352 15.908081 9.716484 -23.247284 -35.692787 14.882174 
-1.723086 41.865685 1.607533 7.361095 0.126934 -0.986326 0.000000 0.000000 0.000000 5.663888 -4.920979 5.224374 -2.490274 4.892491 0.343050 -17.639854 -1.329427 -13.499869 3.721363 29.998512 22.324060 -47.263939 -54.816864 -32.756413 -71.656586 -9.425352 27.246761 -20.973867 -10.722030 47.420052 -18.701487 -17.908520 18.196775 45.824280 35.844746 51.457664 60.126457 -38.496536 39.339657 66.079613 18.150322 -1.143398 -16.823717 13.862846 20.841743 102.205589 11.773750 -0.599181 9.927331 -9.265958 -31.839777 -51.960964 -2.167727 2.855764 78.694885 14.638118 9.564364 -25.559206 -37.534317 15.414772 
-2.043151 41.866467 1.683475 4.443793 -0.838915 -2.695738 0.000000 0.000000 0.000000 9.506651 -3.470947 5.390470 -2.676844 2.685533 0.185801 -16.080534 -1.298946 -12.034533 7.379433 28.474178 20.685158 -50.911034 -50.418758 -30.016045 -70.034630 -13.894450 25.947664 -24.459461 -3.691283 45.391514 -15.530854 -21.040243 18.395662 41.982738 44.384220 46.635307 54.101681 -39.755871 33.028393 66.001022 18.679321 -1.634724 -20.768818 15.239983 20.861284 108.014359 15.172512 0.235049 13.826123 -3.218078 -35.874249 -47.036667 1.435324 3.637475 80.191284 13.272703 9.366714 -29.315311 -39.946526 15.123143 
-2.336959 41.849636 1.642860 2.218378 -0.360711 -3.349728 0.000000 0.000000 0.000000 12.467861 -4.192370 5.101370 -2.693080 1.455076 0.088110 -15.878576 -0.896879 -12.306366 10.296600 25.836006 19.651855 -53.594170 -47.102020 -28.218534 -67.032562 -16.072472 33.452171 -27.589552 -1.416215 44.183552 -13.387549 -23.676086 18.583340 34.915348 50.538818 39.989475 48.986282 -41.257034 25.866224 61.696114 17.929129 -1.780606 -27.312946 16.345741 20.257557 111.439316 16.235752 0.562221 14.169200 2.941731 -37.511295 -43.082474 2.851321 3.833220 81.222626 11.739157 9.093091 -31.898148 -41.435398 14.563181 
-2.645897 41.797771 1.540742 0.602356 -0.097429 -3.906261 0.000000 0.000000 0.000000 14.622663 -4.777689 4.869959 -2.812442 0.341797 0.009824 -15.463787 -0.285992 -12.529480 13.005009 23.682999 18.825686 -55.653469 -43.833813 -26.893589 -63.088223 -17.897820 43.042461 -30.709192 -0.706731 43.330276 -11.446246 -26.427195 18.842558 24.609547 54.691113 31.487387 43.035667 -43.341660 17.242060 57.036568 16.919676 -2.053896 -34.539383 17.908525 19.490377 111.191360 16.626293 0.650506 13.004560 7.270270 -37.359077 -39.848557 3.924578 3.977345 82.120544 10.860157 8.966640 -34.131630 -42.513237 14.145830 
-2.911957 41.722019 1.385426 0.077577 0.136329 -4.326182 0.000000 0.000000 0.000000 15.419533 -5.187328 4.746009 -2.831442 -0.576172 -0.058689 -15.168718 0.276490 -12.500134 15.538587 21.906076 18.154799 -57.012329 -40.812424 -26.011831 -58.857693 -20.162931 54.273415 -34.781807 -1.517614 43.084831 -9.983500 -28.896709 19.071146 12.691976 57.150631 22.103870 35.378654 -44.679409 6.639091 52.124969 15.005335 -2.932498 -41.957291 19.477009 18.452291 106.898178 15.377018 0.269131 11.674060 8.999779 -35.929073 -37.899261 4.687863 4.074423 82.871674 10.351150 8.879922 -36.028648 -43.920502 13.872062 
-3.145497 41.675591 1.254403 -0.240021 0.438062 -4.560637 0.000000 0.000000 0.000000 15.833200 -5.635950 4.631161 -2.898360 -1.191404 -0.097838 -14.926074 0.591094 -12.510399 17.373634 20.374998 17.823359 -57.644234 -37.384144 -25.555061 -54.831718 -22.839691 62.858551 -36.912029 -1.454900 42.940678 -9.103937 -30.000000 19.211596 0.416055 58.118523 12.911166 26.739750 -44.281357 -5.496886 46.192947 12.158806 -4.222204 -47.888325 20.798712 17.523525 99.707291 12.350391 -0.479612 10.103266 9.597131 -33.263794 -36.050030 5.292062 4.176267 83.756035 9.707952 8.830173 -37.917255 -44.754925 13.839915 
-3.355100 41.681137 1.154565 -0.471171 0.525710 -4.511887 0.000000 0.000000 0.000000 16.105749 -5.840839 4.573814 -3.082518 -1.542965 -0.127170 -14.536938 0.810001 -12.628157 18.613380 19.281328 17.680220 -58.351189 -33.421398 -25.132036 -50.985069 -25.390553 67.633720 -37.586838 -0.381570 42.538307 -8.680260 -30.000000 19.268433 -10.894004 57.991032 4.960427 18.433235 -41.993687 -18.034477 39.031128 8.986756 -5.724595 -51.725254 21.803961 16.924845 90.754189 7.782311 -1.515775 8.525243 10.485520 -30.813858 -34.105511 5.965423 4.273891 84.409027 9.112105 8.731944 -39.409950 -45.633846 14.027667 
-3.503760 41.713276 1.067400 -0.257554 0.594170 -4.111512 0.000000 0.000000 0.000000 15.917071 -5.879776 4.574809 -3.413473 -1.757807 -0.146715 -14.036146 0.818420 -12.970054 19.602491 18.592691 17.526283 -59.523922 -28.918047 -24.600237 -47.993286 -27.413857 70.064354 -38.087616 0.894689 42.083012 -8.587447 -30.000000 19.181499 -19.711035 57.232040 -0.655269 11.804275 -38.657040 -29.944479 31.248716 5.850786 -7.363872 -53.678680 22.214314 16.537720 80.980247 2.052101 -2.683771 7.167081 11.568768 -29.311426 -32.447750 6.405721 4.310521 84.949547 8.672841 8.708011 -40.504951 -47.050545 14.800904 
-3.631438 41.729805 0.997449 0.480158 0.116906 -3.974601 0.000000 0.000000 0.000000 15.157603 -5.294457 4.736277 -3.763417 -2.109366 -0.166263 -13.604389 0.798850 -13.136054 21.057745 18.349916 17.064716 -61.008690 -23.989187 -24.082664 -46.128490 -29.095472 71.673485 -39.119984 2.449410 41.169888 -8.189011 -30.000000 19.222906 -25.701799 56.452785 -4.163323 6.848124 -35.552670 -39.842655 24.270971 4.009483 -8.696737 -54.520206 22.772659 16.528297 72.455994 -2.565236 -3.599861 6.164893 11.508351 -29.352602 -31.276686 7.343155 4.547727 85.296379 8.525920 8.659232 -41.149368 -48.400486 15.727902 
-3.686756 41.730240 0.986169 1.283240 -0.584357 -4.209263 0.000000 0.000000 0.000000 14.197615 -4.397494 4.975499 -4.033420 -2.665999 -0.205310 -13.118911 0.989639 -12.990190 22.943472 18.227179 16.379959 -62.097561 -18.830324 -23.890434 -45.497810 -30.981615 72.891212 -40.668407 3.771378 40.200275 -7.202233 -30.000000 19.630901 -29.293982 55.722389 -5.865560 3.044741 -33.350960 -47.387047 19.342491 3.406880 -9.666574 -54.341072 23.111376 16.680712 66.364174 -4.937398 -3.983326 5.392450 10.048278 -29.853094 -30.155394 8.369521 4.778231 85.750214 8.359512 8.649690 -41.071396 -49.446419 17.101749 
-3.566351 41.729794 1.093716 1.399748 -0.778798 -4.541524 0.000000 0.000000 0.000000 13.814281 -3.871322 5.109070 -4.233577 -3.261687 -0.254606 -12.563328 1.372232 -12.630522 24.998346 18.020380 15.675981 -62.527130 -13.784464 -24.135054 -45.582005 -33.227211 73.844429 -42.026817 3.766856 40.275589 -5.703322 -30.000000 20.433105 -30.877434 54.914551 -5.810363 0.055646 -32.305302 -52.724289 16.257250 3.428977 -10.326365 -52.848370 22.536350 16.868145 63.471283 -5.357290 -3.976580 4.313226 8.662306 -28.872900 -28.052452 8.406231 4.700101 86.444046 7.793605 8.586674 -40.846874 -49.987518 18.730928 
